HIERARCHY
ROOT root     
{
	OFFSET 0.0000 0.0000 0.0000
	CHANNELS 6 Xposition Yposition Zposition Zrotation Yrotation Xrotation
	JOINT pelvis   
	{
		OFFSET 0.0000 0.0000 0.0000
		CHANNELS 3 Zrotation Yrotation Xrotation
		JOINT thorax   
		{
			OFFSET 0.0000 23.0750 -5.0000
			CHANNELS 3 Zrotation Yrotation Xrotation
			JOINT rclavicle
			{
				OFFSET 0.0000 28.0009 0.0000
				CHANNELS 3 Zrotation Yrotation Xrotation
				JOINT rhumerus 
				{
					OFFSET -18.5725 5.5939 0.0000
					CHANNELS 3 Zrotation Yrotation Xrotation
					JOINT rradius  
					{
						OFFSET -24.8459 0.0000 0.0000
						CHANNELS 3 Zrotation Yrotation Xrotation
						JOINT rhand    
						{
							OFFSET -24.5477 0.0000 0.0000
							CHANNELS 3 Zrotation Yrotation Xrotation
							End Site
							{
								OFFSET -8.1826 0.0000 0.0000
							}
						}
					}
				}
			}
			JOINT lclavicle
			{
				OFFSET 0.0000 28.0009 0.0000
				CHANNELS 3 Zrotation Yrotation Xrotation
				JOINT lhumerus 
				{
					OFFSET 18.5725 5.5939 0.0000
					CHANNELS 3 Zrotation Yrotation Xrotation
					JOINT lradius  
					{
						OFFSET 24.8459 0.0000 0.0000
						CHANNELS 3 Zrotation Yrotation Xrotation
						JOINT lhand    
						{
							OFFSET 24.5477 0.0000 0.0000
							CHANNELS 3 Zrotation Yrotation Xrotation
							End Site
							{
								OFFSET 8.1826 0.0000 0.0000
							}
						}
					}
				}
			}
			JOINT head     
			{
				OFFSET 0.0000 35.2030 0.0000
				CHANNELS 3 Zrotation Yrotation Xrotation
				End Site
				{
					OFFSET 0.0000 11.7343 0.0000
				}
			}
		}
		JOINT rfemur   
		{
			OFFSET -8.2817 0.0000 0.0000
			CHANNELS 3 Zrotation Yrotation Xrotation
			JOINT rtibia   
			{
				OFFSET 0.0000 -43.3627 0.0000
				CHANNELS 3 Zrotation Yrotation Xrotation
				JOINT rfoot    
				{
					OFFSET 0.0000 -38.2947 0.0000
					CHANNELS 3 Zrotation Yrotation Xrotation
					JOINT rtoes    
					{
						OFFSET 0.0000 0.0000 16.6054
						CHANNELS 3 Zrotation Yrotation Xrotation
						End Site
						{
							OFFSET 0.0000 0.0000 5.5351
						}
					}
				}
			}
		}
		JOINT lfemur   
		{
			OFFSET 8.2817 0.0000 0.0000
			CHANNELS 3 Zrotation Yrotation Xrotation
			JOINT ltibia   
			{
				OFFSET 0.0000 -43.3627 0.0000
				CHANNELS 3 Zrotation Yrotation Xrotation
				JOINT lfoot    
				{
					OFFSET 0.0000 -38.2947 0.0000
					CHANNELS 3 Zrotation Yrotation Xrotation
					JOINT ltoes    
					{
						OFFSET 0.0000 0.0000 16.6054
						CHANNELS 3 Zrotation Yrotation Xrotation
						End Site
						{
							OFFSET 0.0000 0.0000 5.5351
						}
					}
				}
			}
		}
	}
}
MOTION
Frames: 9
Frame Time: .0333333
-82.64 76.709 -5.6426 -96.4251 83.67 -70.7209 0 -0 0 -5.44013 -5.19166 20.9401 22.2035 -9.73894 -4.49595e-06 59.6805 -10.6118 10.1883 -4.4165e-07 60.7435 -7.53621e-07 -9.25488 4.49246 -0.363803 -15.5758 12.6696 5.46565e-05 -54.4306 -19.4751 2.14491 4.47882e-07 -77.9001 -1.03426e-06 -0.238305 5.39455 -0.0112001 9.70866 1.49114 -12.2255 13.2408 -6.66095 -67.2183 -0 -0 60.8321 -3.21485e-05 -16.185 -11.4436 3.29572 -3.5497e-06 -9.31346 -3.72774 13.2793 -51.2964 -0 -0 69.5798 0.000106808 12.1818 -18.2026 -3.85819 -1.34313e-05 -39.4424 
-81.806 76.745 -5.6364 -97.1154 83.7321 -71.5128 0 -0 0 -5.24261 -5.59195 20.9901 22.2477 -10.0549 -8.29308e-06 59.2379 -11.2135 10.4134 -0 61.1825 -0 -9.20756 4.4631 -0.359604 -15.0955 12.6031 6.37232e-05 -53.7831 -20.1006 2.19182 9.80895e-07 -78.7451 -1.19537e-06 -0.501199 5.39346 -0.0235999 9.87008 1.67399 -12.2524 13.6868 -6.64797 -67.8869 -0 -0 58.4028 1.97059e-05 -16.2943 -10.9417 3.17564 -2.506e-06 -9.97222 -3.65962 13.5318 -50.5439 -0 -0 69.5355 -6.2646e-05 11.9235 -18.1135 -3.7559 -1.13113e-05 -40.8858 
-80.952 76.772 -5.6291 -97.9485 83.806 -72.4566 0 -0 0 -5.0418 -5.98981 21.0304 22.2808 -10.3826 -3.30488e-05 58.7826 -11.832 10.688 -0 61.7029 -0 -9.09935 4.46816 -0.355699 -14.6253 12.5509 -2.27096e-05 -53.1075 -20.6706 2.21683 2.13844e-06 -79.589 -2.56711e-06 -0.722806 5.37 -0.0339005 10.0191 1.83657 -12.2918 14.1299 -6.65475 -68.4246 -0 -0 55.8895 1.38045e-06 -16.3427 -10.3927 3.02797 2.78973e-06 -10.8788 -3.59364 13.7707 -49.759 -0 -0 69.4815 -9.98572e-05 11.6786 -18.0415 -3.66281 -3.16238e-05 -42.2313 
-80.077 76.788 -5.6213 -98.9676 83.8977 -73.5975 0 -0 0 -4.83962 -6.3905 21.0598 22.2988 -10.7246 1.58769e-05 58.3238 -12.4589 11.006 -7.85774e-07 62.2916 -4.7487e-07 -8.9389 4.49712 -0.351695 -14.1671 12.5167 -9.90126e-05 -52.4079 -21.1926 2.22389 0 -80.4249 0 -0.899497 5.32545 -0.0417994 10.1572 1.97855 -12.3374 14.563 -6.68524 -68.8377 -0 -0 53.3158 4.06362e-05 -16.3189 -9.7978 2.85223 -9.34792e-06 -12.0559 -3.53065 13.9892 -48.9423 -0 -0 69.4206 2.32547e-06 11.4512 -17.9818 -3.57828 -7.56304e-05 -43.5122 
-79.181 76.795 -5.6145 -100.203 84.0049 -74.9633 0 -0 0 -4.64015 -6.79687 21.0752 22.2997 -11.0769 9.03e-05 57.8753 -13.0948 11.353 -4.89743e-07 62.9344 -8.00218e-07 -8.73611 4.53694 -0.346703 -13.7207 12.4991 -2.79795e-05 -51.695 -21.6628 2.21353 -2.12778e-06 -81.2442 1.82505e-06 -1.03001 5.26515 -0.0474004 10.2876 2.09771 -12.3795 14.9791 -6.74407 -69.1388 -0 -0 50.7105 -2.21428e-05 -16.2115 -9.15981 2.64988 1.18949e-05 -13.5131 -3.4726 14.1805 -48.0936 -0 -0 69.3485 -2.83779e-05 11.245 -17.931 -3.50272 -5.03527e-05 -44.7351 
-78.263 76.792 -5.6095 -101.693 84.1389 -76.5933 0 -0 0 -4.44575 -7.20893 21.0767 22.2819 -11.4367 -4.44063e-05 57.447 -13.7388 11.7145 -5.06381e-07 63.6204 -8.16407e-07 -8.50397 4.57481 -0.340298 -13.2867 12.4981 -8.34581e-05 -50.9773 -22.0863 2.19137 2.8579e-06 -82.0279 -3.28585e-06 -1.11571 5.19686 -0.0506006 10.412 2.19154 -12.4139 15.3697 -6.83364 -69.3399 -0 -0 48.1031 -5.1485e-05 -16.0149 -8.48437 2.4249 -1.9366e-06 -15.2396 -3.42196 14.3436 -47.2119 -0 -0 69.2659 3.19454e-05 11.0593 -17.8838 -3.43487 3.90574e-05 -45.9217 
-77.324 76.78 -5.6071 -103.454 84.2856 -78.5013 0 -0 0 -4.25652 -7.62297 21.0596 22.2423 -11.8009 6.81778e-05 57.0471 -14.3906 12.0774 -0 64.3382 -0 -8.2587 4.60031 -0.332308 -12.8654 12.5127 7.73049e-05 -50.2624 -22.4633 2.16049 0 -82.7916 0 -1.16087 5.13047 -0.0519982 10.5331 2.25648 -12.4383 15.7263 -6.95119 -69.4572 -0 -0 45.5271 2.80292e-05 -15.7307 -7.77967 2.1834 -3.59588e-06 -17.2119 -3.37805 14.4771 -46.2984 -0 -0 69.1671 7.72326e-05 10.891 -17.8349 -3.37259 2.03744e-06 -47.1049 
-76.364 76.76 -5.6082 -105.441 84.4572 -80.6411 0 -0 0 -4.07281 -8.03328 21.0247 22.1803 -12.166 6.32895e-05 56.6836 -15.0531 12.4276 -5.45111e-07 65.0857 -8.54243e-07 -8.01356 4.60467 -0.322707 -12.4575 12.5425 1.4357e-05 -49.5601 -22.7954 2.12496 2.51369e-06 -83.5113 -2.81601e-06 -1.17218 5.07564 -0.0519993 10.6514 2.29026 -12.4549 16.0376 -7.0896 -69.5066 -0 -0 43.0066 2.13359e-05 -15.3673 -7.05713 1.93381 3.70864e-06 -19.3808 -3.34164 14.5847 -45.351 -0 -0 69.0515 -4.71812e-05 10.7352 -17.7802 -3.31333 2.4958e-05 -48.2991 
-75.384 76.733 -5.6136 -107.64 84.646 -82.9962 0 -0 0 -3.89405 -8.43384 20.9685 22.095 -12.5306 -4.18457e-05 56.3615 -15.7233 12.762 -8.0217e-07 65.8526 -1.23872e-06 -7.78457 4.58646 -0.312202 -12.0696 12.5854 7.3767e-05 -48.8728 -23.0852 2.08894 4.50933e-07 -84.1859 -1.05067e-06 -1.15709 5.04328 -0.0509997 10.7657 2.29134 -12.4639 16.2939 -7.24316 -69.5004 -0 -0 40.5691 1.56659e-05 -14.9378 -6.33326 1.68573 -1.08633e-06 -21.6755 -3.31378 14.6691 -44.3715 -0 -0 68.9102 1.88833e-05 10.5863 -17.7128 -3.25448 -2.0191e-06 -49.5238 
